<svg xmlns="http://www.w3.org/2000/svg" version="1.1" xmlns:xlink="http://www.w3.org/1999/xlink" width="50" height="50" x="0" y="0" viewBox="0 0 64 64" style="enable-background:new 0 0 512 512" xml:space="preserve" class=""><g><linearGradient id="a" x1="18.416" x2="45.584" y1="32" y2="32" gradientUnits="userSpaceOnUse"><stop stop-opacity="1" stop-color="#8e4ec6" offset="0"></stop><stop stop-opacity="1" stop-color="#5b5bd6" offset="1"></stop></linearGradient><path fill="url(#a)" d="m44.203 19.799-9.202-6.132v6.802a3.001 3.001 0 0 1-6.002 0v-6.802L19.797 19.8a3.11 3.11 0 0 0-1.38 2.58V56.9a3.104 3.104 0 0 0 3.1 3.101h20.966a3.104 3.104 0 0 0 3.1-3.1V22.38a3.11 3.11 0 0 0-1.38-2.581zm-4.46 28.768H24.257a1 1 0 0 1 0-2h15.484a1 1 0 0 1 0 2zm0-7.742H24.257a1 1 0 0 1 0-2h15.484a1 1 0 0 1 0 2zM31 20.469v-7.742a4.877 4.877 0 0 1 4.871-4.872h3.871a2.877 2.877 0 0 0 2.87-2.87 1 1 0 0 1 2.001 0 4.884 4.884 0 0 1-4.87 4.871H35.87a2.887 2.887 0 0 0-2.86 2.61 2.173 2.173 0 0 0-.01.26v7.743a1 1 0 0 1-2.001 0z" opacity="1" data-original="url(#a)" class=""></path></g></svg>