<svg xmlns="http://www.w3.org/2000/svg" version="1.1" xmlns:xlink="http://www.w3.org/1999/xlink" width="50" height="50" x="0" y="0" viewBox="0 0 512 512" style="enable-background:new 0 0 512 512" xml:space="preserve" class=""><g><linearGradient id="a" x1="256" x2="256" y1="40.283" y2="471.717" gradientUnits="userSpaceOnUse"><stop stop-opacity="1" stop-color="#8e4ec6" offset="0.104"></stop><stop stop-opacity="1" stop-color="#5b5bd6" offset="0.886"></stop></linearGradient><path fill="url(#a)" d="m215.6 328.2 32.4-64.3v207.8L50.7 422V285.9L206 332.6c3.9 1.2 8-.8 9.6-4.4zm28.8-92.5L47.6 186.1l-28.9 73.4 26 7.8.9.3 158.7 47.7zm23.2 0 40.2 79.7 158.7-47.7.9-.3 26-7.8-28.9-73.4zm28.8 92.5L264 263.9v207.8L461.3 422V285.9L306 332.6c-3.9 1.2-8-.8-9.6-4.4zM256 127.1 74.3 176.4 256 222.2l181.7-45.8zm237.4-37L303.7 42l-36.2 71.7L464.4 167zm-248.1 23.4-28.9-73.2L18.6 90.1l29 76.9z" opacity="1" data-original="url(#a)" class=""></path></g></svg>