<svg xmlns="http://www.w3.org/2000/svg" version="1.1" xmlns:xlink="http://www.w3.org/1999/xlink" width="50" height="50" x="0" y="0" viewBox="0 0 16 16" style="enable-background:new 0 0 512 512" xml:space="preserve" class=""><g><linearGradient id="b" x1="2166.687" x2="2175.003" y1="5.026" y2="10.966" gradientUnits="userSpaceOnUse"><stop stop-opacity="1" stop-color="#8e4ec6" offset="0"></stop><stop stop-opacity="1" stop-color="#6109ba" offset="1"></stop></linearGradient><linearGradient id="a" x1="2167.15" x2="2181.151" y1="1" y2="15" gradientUnits="userSpaceOnUse"><stop stop-opacity="1" stop-color="#8e4ec6" offset="0"></stop><stop stop-opacity="1" stop-color="#5b5bd6" offset="1"></stop></linearGradient><path fill="url(#a)" d="M2170.818 1.118a3.843 3.843 0 0 0-3.549 3.57 46.63 46.63 0 0 0 0 6.645 3.843 3.843 0 0 0 3.571 3.548 46.61 46.61 0 0 0 6.642 0 3.844 3.844 0 0 0 3.551-3.57 47.01 47.01 0 0 0 0-6.65 3.839 3.839 0 0 0-3.568-3.543c-2.663-.19-4.98-.12-6.647 0z" paint-order="stroke markers fill" transform="translate(-2166.151)" opacity="1" data-original="url(#a)" class=""></path><path fill="url(#b)" d="M2171.179 5.028c-.654 0-1.189.535-1.189 1.189v2.378c0 .653.535 1.188 1.189 1.188h2.08V9.19h-2.08a.587.587 0 0 1-.595-.594V6.217c0-.335.26-.595.595-.595h5.944c.334 0 .595.26.595.595v2.378a.587.587 0 0 1-.595.594h-2.007l.722-.787-.439-.402-1.17 1.276a.296.296 0 0 0 0 .4l1.173 1.296.442-.399-.717-.79h1.996c.654 0 1.189-.535 1.189-1.188V6.217c0-.654-.535-1.19-1.189-1.19z" paint-order="fill markers stroke" transform="translate(-2166.151)" opacity="1" data-original="url(#b)"></path></g></svg>