<svg xmlns="http://www.w3.org/2000/svg" version="1.1" xmlns:xlink="http://www.w3.org/1999/xlink" width="50" height="50" x="0" y="0" viewBox="0 0 100 100" style="enable-background:new 0 0 512 512" xml:space="preserve" class=""><g><linearGradient id="a"><stop stop-opacity="1" stop-color="#8e4ec6" offset="0.184"></stop><stop stop-opacity="1" stop-color="#5b5bd6" offset="0.821"></stop></linearGradient><linearGradient xlink:href="#a" id="b" x1="9.131" x2="113.584" y1="-14.909" y2="92.378" gradientUnits="userSpaceOnUse"></linearGradient><linearGradient xlink:href="#a" id="c" x1="-19.958" x2="84.496" y1="13.411" y2="120.699" gradientUnits="userSpaceOnUse"></linearGradient><path fill="url(#b)" d="M28.393 19.362a9.656 9.656 0 0 1 9.18-6.6H45.1v38.675c0 4.783-3.478 8.758-8.04 9.533-.954.161-1.629 1.025-1.629 1.992v5.778c0 1.124.912 2.035 2.036 2.035h24.935a2.036 2.036 0 0 0 2.036-2.035v-5.778c0-.967-.675-1.83-1.628-1.992-4.563-.775-8.041-4.75-8.041-9.533V12.762h7.529a9.683 9.683 0 0 1 9.185 6.62l2.16 6.478a2.036 2.036 0 0 0 1.93 1.392h6.167a2.036 2.036 0 0 0 2.036-2.035V5.128a2.036 2.036 0 0 0-2.036-2.035H18.13a2.036 2.036 0 0 0-2.036 2.035v20.089c0 1.124.912 2.035 2.036 2.035h6.166c.876 0 1.654-.56 1.931-1.392z" opacity="1" data-original="url(#b)" class=""></path><path fill="url(#c)" d="m96.903 83.826-9.601-9.583c-1.283-1.281-3.474-.372-3.474 1.44v4.761H16.172v-4.76c0-1.813-2.191-2.722-3.474-1.441l-9.6 9.583a2.036 2.036 0 0 0-.002 2.88l9.6 9.6c1.283 1.283 3.476.375 3.476-1.439v-4.754h67.656v4.754c0 1.814 2.193 2.722 3.475 1.44l9.6-9.6a2.036 2.036 0 0 0 0-2.88z" opacity="1" data-original="url(#c)"></path></g></svg>