<svg xmlns="http://www.w3.org/2000/svg" version="1.1" xmlns:xlink="http://www.w3.org/1999/xlink" width="50" height="50" x="0" y="0" viewBox="0 0 64 64" style="enable-background:new 0 0 512 512" xml:space="preserve" class=""><g><linearGradient id="a" x1="3.5" x2="60.455" y1="32.007" y2="32.007" gradientUnits="userSpaceOnUse"><stop stop-opacity="1" stop-color="#8e4ec6" offset="0"></stop><stop stop-opacity="1" stop-color="#5b5bd6" offset="1"></stop></linearGradient><path fill="url(#a)" d="m33.99 57.98-14.95-7.51V13.59l14.93-7.56a6.024 6.024 0 0 1 8.75 5.38V52.6a6.059 6.059 0 0 1-8.73 5.38zM9.53 49.54h6.51V14.52H9.53a6.037 6.037 0 0 0-6.03 6.03v22.96a6.037 6.037 0 0 0 6.03 6.03zm43.44 3.77v3.82a1.5 1.5 0 0 0 3 0v-3.82c5.98-1.52 5.98-10.154 0-11.68-7.799-1.696-10.656 9.421-3 11.68zm3-46.44a1.5 1.5 0 0 0-3 0v31.7a8.637 8.637 0 0 1 3 0z" opacity="1" data-original="url(#a)" class=""></path></g></svg>